<svg version="1.1" xmlns="http://www.w3.org/2000/svg" xmlns:xlink="http://www.w3.org/1999/xlink" width="729" height="412"><defs></defs><g><g transform="translate(-190,-50) scale(1,1)"><rect fill="#C0C0C0" stroke="none" x="755" y="67" width="161" height="308" opacity="0.2"></rect></g><g transform="translate(-190,-50) scale(1,1)"><rect fill="#ffffff" stroke="none" x="748" y="60" width="161" height="308"></rect></g><g transform="translate(-190,-50) scale(1,1)"><path fill="none" stroke="#000000" d="M 748 60 L 909 60 L 909 368 L 748 368 L 748 60 Z Z" stroke-miterlimit="10"></path></g><g transform="translate(-190,-50) scale(1,1)"><path fill="none" stroke="#000000" d="M 748 98 L 909 98" stroke-miterlimit="10"></path></g><g transform="translate(-190,-50) scale(1,1)"><path fill="none" stroke="#000000" d="M 748 181 L 909 181" stroke-miterlimit="10"></path></g><g transform="translate(-190,-50) scale(1,1)"><g><path fill="none" stroke="none"></path><text fill="#000000" stroke="none" font-family="Arial" font-size="13px" font-style="normal" font-weight="normal" text-decoration="none" x="797" y="77.5">«Abstract»</text></g></g><g transform="translate(-190,-50) scale(1,1)"><g><path fill="none" stroke="none"></path><text fill="#000000" stroke="none" font-family="Arial" font-size="13px" font-style="italic" font-weight="bold" text-decoration="none" x="794" y="92.5">GameWorld</text></g></g><g transform="translate(-190,-50) scale(1,1)"><g><path fill="none" stroke="none"></path><text fill="#000000" stroke="none" font-family="Arial" font-size="13px" font-style="normal" font-weight="normal" text-decoration="none" x="753" y="115.5">#&lt;&lt;listener&gt;&gt; appListener</text></g></g><g transform="translate(-190,-50) scale(1,1)"><g><path fill="none" stroke="none"></path><text fill="#000000" stroke="none" font-family="Arial" font-size="13px" font-style="normal" font-weight="normal" text-decoration="none" x="753" y="130.5">#&lt;&lt;strategy&gt;&gt; detector</text></g></g><g transform="translate(-190,-50) scale(1,1)"><g><path fill="none" stroke="none"></path><text fill="#000000" stroke="none" font-family="Arial" font-size="13px" font-style="normal" font-weight="normal" text-decoration="none" x="753" y="145.5">#pause: Boolean</text></g></g><g transform="translate(-190,-50) scale(1,1)"><g><path fill="none" stroke="none"></path><text fill="#000000" stroke="none" font-family="Arial" font-size="13px" font-style="normal" font-weight="normal" text-decoration="none" x="753" y="160.5">#root</text></g></g><g transform="translate(-190,-50) scale(1,1)"><g><path fill="none" stroke="none"></path><text fill="#000000" stroke="none" font-family="Arial" font-size="13px" font-style="normal" font-weight="normal" text-decoration="none" x="753" y="175.5">#scene</text></g></g><g transform="translate(-190,-50) scale(1,1)"><g><path fill="none" stroke="none"></path><text fill="#000000" stroke="none" font-family="Arial" font-size="13px" font-style="normal" font-weight="normal" text-decoration="none" x="753" y="198.5">-checkCollisions()</text></g></g><g transform="translate(-190,-50) scale(1,1)"><g><path fill="none" stroke="none"></path><text fill="#000000" stroke="none" font-family="Arial" font-size="13px" font-style="normal" font-weight="normal" text-decoration="none" x="753" y="213.5">-checkWin()</text></g></g><g transform="translate(-190,-50) scale(1,1)"><g><path fill="none" stroke="none"></path><text fill="#000000" stroke="none" font-family="Arial" font-size="13px" font-style="normal" font-weight="normal" text-decoration="none" x="753" y="228.5">+gameFailed()</text></g></g><g transform="translate(-190,-50) scale(1,1)"><g><path fill="none" stroke="none"></path><text fill="#000000" stroke="none" font-family="Arial" font-size="13px" font-style="normal" font-weight="normal" text-decoration="none" x="753" y="243.5">+getAliens()</text></g></g><g transform="translate(-190,-50) scale(1,1)"><g><path fill="none" stroke="none"></path><text fill="#000000" stroke="none" font-family="Arial" font-size="13px" font-style="normal" font-weight="normal" text-decoration="none" x="753" y="258.5">+getRockets()</text></g></g><g transform="translate(-190,-50) scale(1,1)"><g><path fill="none" stroke="none"></path><text fill="#000000" stroke="none" font-family="Arial" font-size="13px" font-style="normal" font-weight="normal" text-decoration="none" x="753" y="273.5">+getScene()</text></g></g><g transform="translate(-190,-50) scale(1,1)"><g><path fill="none" stroke="none"></path><text fill="#000000" stroke="none" font-family="Arial" font-size="13px" font-style="normal" font-weight="normal" text-decoration="none" x="753" y="288.5">#initKeys()</text></g></g><g transform="translate(-190,-50) scale(1,1)"><g><path fill="none" stroke="none"></path><text fill="#000000" stroke="none" font-family="Arial" font-size="13px" font-style="normal" font-weight="normal" text-decoration="none" x="753" y="303.5">#init()</text></g></g><g transform="translate(-190,-50) scale(1,1)"><g><path fill="none" stroke="none"></path><text fill="#000000" stroke="none" font-family="Arial" font-size="13px" font-style="normal" font-weight="normal" text-decoration="none" x="753" y="318.5">#pause()</text></g></g><g transform="translate(-190,-50) scale(1,1)"><g><path fill="none" stroke="none"></path><text fill="#000000" stroke="none" font-family="Arial" font-size="13px" font-style="normal" font-weight="normal" text-decoration="none" x="753" y="333.5">#shoot()</text></g></g><g transform="translate(-190,-50) scale(1,1)"><g><path fill="none" stroke="none"></path><text fill="#000000" stroke="none" font-family="Arial" font-size="13px" font-style="normal" font-weight="normal" text-decoration="none" x="753" y="348.5">+updateScene(double dt)</text></g></g><g transform="translate(-190,-50) scale(1,1)"><g><path fill="none" stroke="none"></path><text fill="#000000" stroke="none" font-family="Arial" font-size="13px" font-style="italic" font-weight="normal" text-decoration="none" x="753" y="363.5">-initLevel()</text></g></g><g transform="translate(-190,-50) scale(1,1)"><rect fill="#C0C0C0" stroke="none" x="291" y="415" width="111" height="44" opacity="0.2"></rect></g><g transform="translate(-190,-50) scale(1,1)"><rect fill="#ffffff" stroke="none" x="284" y="408" width="111" height="44"></rect></g><g transform="translate(-190,-50) scale(1,1)"><path fill="none" stroke="#000000" d="M 284 408 L 395 408 L 395 452 L 284 452 L 284 408 Z Z" stroke-miterlimit="10"></path></g><g transform="translate(-190,-50) scale(1,1)"><path fill="none" stroke="#000000" d="M 284 433 L 395 433" stroke-miterlimit="10"></path></g><g transform="translate(-190,-50) scale(1,1)"><path fill="none" stroke="#000000" d="M 284 443 L 395 443" stroke-miterlimit="10"></path></g><g transform="translate(-190,-50) scale(1,1)"><g><path fill="none" stroke="none"></path><text fill="#000000" stroke="none" font-family="Arial" font-size="13px" font-style="normal" font-weight="bold" text-decoration="none" x="293" y="427.5">PreciseCollision</text></g></g><g transform="translate(-190,-50) scale(1,1)"><rect fill="#C0C0C0" stroke="none" x="499" y="415" width="109" height="44" opacity="0.2"></rect></g><g transform="translate(-190,-50) scale(1,1)"><rect fill="#ffffff" stroke="none" x="492" y="408" width="109" height="44"></rect></g><g transform="translate(-190,-50) scale(1,1)"><path fill="none" stroke="#000000" d="M 492 408 L 601 408 L 601 452 L 492 452 L 492 408 Z Z" stroke-miterlimit="10"></path></g><g transform="translate(-190,-50) scale(1,1)"><path fill="none" stroke="#000000" d="M 492 433 L 601 433" stroke-miterlimit="10"></path></g><g transform="translate(-190,-50) scale(1,1)"><path fill="none" stroke="#000000" d="M 492 443 L 601 443" stroke-miterlimit="10"></path></g><g transform="translate(-190,-50) scale(1,1)"><g><path fill="none" stroke="none"></path><text fill="#000000" stroke="none" font-family="Arial" font-size="13px" font-style="normal" font-weight="bold" text-decoration="none" x="502" y="427.5">SimpleCollision</text></g></g><g transform="translate(-190,-50) scale(1,1)"><rect fill="#C0C0C0" stroke="none" x="379" y="247" width="188" height="70" opacity="0.2"></rect></g><g transform="translate(-190,-50) scale(1,1)"><rect fill="#ffffff" stroke="none" x="372" y="240" width="188" height="70"></rect></g><g transform="translate(-190,-50) scale(1,1)"><path fill="none" stroke="#000000" d="M 372 240 L 560 240 L 560 310 L 372 310 L 372 240 Z Z" stroke-miterlimit="10"></path></g><g transform="translate(-190,-50) scale(1,1)"><path fill="none" stroke="#000000" d="M 372 278 L 560 278" stroke-miterlimit="10"></path></g><g transform="translate(-190,-50) scale(1,1)"><path fill="none" stroke="#000000" d="M 372 288 L 560 288" stroke-miterlimit="10"></path></g><g transform="translate(-190,-50) scale(1,1)"><g><path fill="none" stroke="none"></path><text fill="#000000" stroke="none" font-family="Arial" font-size="13px" font-style="normal" font-weight="normal" text-decoration="none" x="434.5" y="257.5">«Interface»</text></g></g><g transform="translate(-190,-50) scale(1,1)"><g><path fill="none" stroke="none"></path><text fill="#000000" stroke="none" font-family="Arial" font-size="13px" font-style="normal" font-weight="bold" text-decoration="none" x="389.5" y="272.5">CollisionDetectionInterface</text></g></g><g transform="translate(-190,-50) scale(1,1)"><g><path fill="none" stroke="none"></path><text fill="#000000" stroke="none" font-family="Arial" font-size="13px" font-style="italic" font-weight="normal" text-decoration="none" x="377" y="305.5">+collide(SpaceObject, Rocket)</text></g></g><g transform="translate(-190,-50) scale(1,1)"><path fill="none" stroke="#000000" d="M 357.8451612903226 407 L 436.5032258064516 311" stroke-miterlimit="10"></path></g><g transform="translate(-190,-50) scale(1,1)"><path fill="#FFFFFF" stroke="none" d="M 430.13363095019076 332.05773637804157 L 436.5032258064516 311 L 417.10917390082676 321.3860844730788"></path></g><g transform="translate(-190,-50) scale(1,1)"><path fill="none" stroke="#000000" d="M 430.13363095019076 332.05773637804157 L 436.5032258064516 311 L 417.10917390082676 321.3860844730788 L 430.13363095019076 332.05773637804157" stroke-miterlimit="10"></path></g><g transform="translate(-190,-50) scale(1,1)"><path fill="none" stroke="#000000" d="M 534.1290322580645 407 L 484.5806451612903 311" stroke-miterlimit="10"></path></g><g transform="translate(-190,-50) scale(1,1)"><path fill="#FFFFFF" stroke="none" d="M 501.38405176851336 325.2001945899461 L 484.5806451612903 311 L 486.4213940315732 332.92285664772163"></path></g><g transform="translate(-190,-50) scale(1,1)"><path fill="none" stroke="#000000" d="M 501.38405176851336 325.2001945899461 L 484.5806451612903 311 L 486.4213940315732 332.92285664772163 L 501.38405176851336 325.2001945899461" stroke-miterlimit="10"></path></g><g transform="translate(-190,-50) scale(1,1)"><rect fill="#C0C0C0" stroke="none" x="207" y="67" width="183" height="102" opacity="0.2"></rect></g><g transform="translate(-190,-50) scale(1,1)"><rect fill="#ffffff" stroke="none" x="200" y="60" width="183" height="102"></rect></g><g transform="translate(-190,-50) scale(1,1)"><path fill="none" stroke="#000000" d="M 200 60 L 383 60 L 383 162 L 200 162 L 200 60 Z Z" stroke-miterlimit="10"></path></g><g transform="translate(-190,-50) scale(1,1)"><path fill="none" stroke="#000000" d="M 200 85 L 383 85" stroke-miterlimit="10"></path></g><g transform="translate(-190,-50) scale(1,1)"><path fill="none" stroke="#000000" d="M 200 95 L 383 95" stroke-miterlimit="10"></path></g><g transform="translate(-190,-50) scale(1,1)"><g><path fill="none" stroke="none"></path><text fill="#000000" stroke="none" font-family="Arial" font-size="13px" font-style="normal" font-weight="bold" text-decoration="none" x="277.5" y="79.5">Main</text></g></g><g transform="translate(-190,-50) scale(1,1)"><g><path fill="none" stroke="none"></path><text fill="#000000" stroke="none" font-family="Arial" font-size="13px" font-style="normal" font-weight="normal" text-decoration="none" x="205" y="112.5">+handleMessage(msg: String)</text></g></g><g transform="translate(-190,-50) scale(1,1)"><g><path fill="none" stroke="none"></path><text fill="#000000" stroke="none" font-family="Arial" font-size="13px" font-style="normal" font-weight="normal" text-decoration="none" x="205" y="127.5">+receiveTimeScore()</text></g></g><g transform="translate(-190,-50) scale(1,1)"><g><path fill="none" stroke="none"></path><text fill="#000000" stroke="none" font-family="Arial" font-size="13px" font-style="normal" font-weight="normal" text-decoration="none" x="205" y="142.5">+startLvl()</text></g></g><g transform="translate(-190,-50) scale(1,1)"><g><path fill="none" stroke="none"></path><text fill="#000000" stroke="none" font-family="Arial" font-size="13px" font-style="normal" font-weight="normal" text-decoration="none" x="205" y="157.5">+showMenu()</text></g></g><g transform="translate(-190,-50) scale(1,1)"><path fill="none" stroke="#000000" d="M 384 128.83798882681563 L 747 198.46368715083798" stroke-miterlimit="10" stroke-dasharray="3"></path></g><g transform="translate(-190,-50) scale(1,1)"><path fill="none" stroke="#000000" d="M 736.2263033795083 200.68347568347005 L 747 198.46368715083798 L 737.8122185369795 192.41516073626596" stroke-miterlimit="10"></path></g><g transform="translate(-190,-50) scale(1,1)"><path fill="none" stroke="#000000" d="M 346.4878048780488 163 L 427.5853658536586 239" stroke-miterlimit="10"></path></g><g transform="translate(-190,-50) scale(1,1)"><path fill="none" stroke="#000000" d="M 417.2915167312412 235.12228543534897 L 427.5853658536586 239 L 423.0484735988566 228.9791912168569" stroke-miterlimit="10"></path></g><g transform="translate(-190,-50) scale(1,1)"><g><path fill="none" stroke="none"></path><text fill="#000000" stroke="none" font-family="Arial" font-size="13px" font-style="normal" font-weight="normal" text-decoration="none" x="230" y="213">+chooses concrete strategy</text></g></g><g transform="translate(-190,-50) scale(1,1)"><path fill="none" stroke="#000000" d="M 561 258.99171270718233 L 747 227.64917127071823" stroke-miterlimit="10"></path></g><g transform="translate(-190,-50) scale(1,1)"><path fill="#000000" stroke="none" d="M 737.6780854506753 233.4888552634603 L 747 227.64917127071823 L 736.2791308572765 225.18686243050362 L 725.3058472595794 231.30481579327528"></path></g><g transform="translate(-190,-50) scale(1,1)"><path fill="none" stroke="#000000" d="M 737.6780854506753 233.4888552634603 L 747 227.64917127071823 L 736.2791308572765 225.18686243050362 L 725.3058472595794 231.30481579327528 L 737.6780854506753 233.4888552634603" stroke-miterlimit="10"></path></g></g></svg>